<?xml version="1.0" encoding="iso-8859-1"?>
<!-- Generator: Adobe Illustrator 19.0.0, SVG Export Plug-In . SVG Version: 6.00 Build 0)  -->
<svg version="1.1" id="Capa_1" xmlns="http://www.w3.org/2000/svg" xmlns:xlink="http://www.w3.org/1999/xlink" x="0px" y="0px"
	 viewBox="0 0 421.6 421.6" style="enable-background:new 0 0 421.6 421.6;" xml:space="preserve">
<g>
	<g>
		<g>
			<path d="M339.183,64.8h-84.8V41.6c0-22.8-18.8-41.6-41.6-41.6c-22.8,0-41.6,18.8-41.6,41.6v23.2h-88.8c-3.6,0-6.4,2.8-6.4,6.4
				v344c0,3.6,2.8,6.4,6.4,6.4h256.8c3.6,0,6.4-2.8,6.4-6.4v-344C345.983,67.6,342.783,64.8,339.183,64.8z M183.983,41.6
				c0-15.6,12.8-28.4,28.4-28.4c15.6,0,28.4,12.8,28.4,28.4v29.6v6.4c0,15.6-12.8,28.4-28.4,28.4c-15.6,0-28.4-12.8-28.4-28.4V41.6z
				 M332.783,408.8h-244V77.6h82.4c0,22.8,18.8,41.2,41.6,41.2s41.6-18.4,41.6-41.2h78.4V408.8z"/>
			<path d="M128.383,132.4c-3.6,0-6.4,2.8-6.4,6.4V308c0,3.6,2.8,6.4,6.4,6.4h164.8c3.6,0,6.4-2.8,6.4-6.4V139.2
				c0-3.6-2.8-6.4-6.4-6.4h-164.8V132.4z M255.583,302h-89.2v-45.2l22-15.2c6.4,4.8,14,7.6,22.4,7.6c8.4,0,16.4-2.8,22.8-7.6
				l22,15.6V302z M185.583,210.8c0-14,11.2-25.2,25.2-25.2s25.2,11.2,25.2,25.2s-11.2,25.2-25.2,25.2S185.583,224.8,185.583,210.8z
				 M134.783,145.6h152v156h-18v-48.4c0-2-1.2-4-2.8-5.2l-23.2-16.4c4-6,6.4-13.2,6.4-20.8c0-21.2-17.2-38-38-38
				c-21.2,0-38,17.2-38,38c0,8,2.4,15.2,6.4,21.2l-22.8,16c-1.6,1.2-2.8,3.2-2.8,5.2v48.4h-19.2V145.6z"/>
			<path d="M267.583,333.2h-109.6c-3.6,0-6.4,2.8-6.4,6.4c0,3.6,2.8,6.4,6.4,6.4h109.6c3.6,0,6.4-2.8,6.4-6.4
				S271.183,333.2,267.583,333.2z"/>
			<path d="M265.583,364h-109.6c-3.6,0-6.4,2.8-6.4,6.4c0,3.6,2.8,6.4,6.4,6.4h109.6c3.6,0,6.4-2.8,6.4-6.4
				C271.983,366.8,269.183,364,265.583,364z"/>
			<path d="M212.783,61.2c12,0,21.6-9.6,21.6-21.6s-9.6-21.6-21.6-21.6s-21.6,9.6-21.6,21.6S200.783,61.2,212.783,61.2z
				 M212.783,31.2c4.8,0,8.4,4,8.4,8.4c0,4.8-4,8.4-8.4,8.4c-4.8,0-8.4-4-8.4-8.4C203.983,35.2,207.983,31.2,212.783,31.2z"/>
		</g>
	</g>
</g>
<g>
</g>
<g>
</g>
<g>
</g>
<g>
</g>
<g>
</g>
<g>
</g>
<g>
</g>
<g>
</g>
<g>
</g>
<g>
</g>
<g>
</g>
<g>
</g>
<g>
</g>
<g>
</g>
<g>
</g>
</svg>
