<?xml version="1.0" encoding="utf-8"?>
<!-- Generator: Adobe Illustrator 23.0.0, SVG Export Plug-In . SVG Version: 6.00 Build 0)  -->
<svg version="1.1" id="Camada_1" xmlns="http://www.w3.org/2000/svg" xmlns:xlink="http://www.w3.org/1999/xlink" x="0px" y="0px"
	 viewBox="0 0 1920 1080" style="enable-background:new 0 0 1920 1080;" xml:space="preserve">
<style type="text/css">
	.st0{fill:#FFFFFF;}
</style>
<g>
	<g>
		<g>
			<circle class="st0" cx="872.6" cy="498.2" r="13.4"/>
		</g>
		<g>
			<circle class="st0" cx="730.7" cy="498.2" r="13.4"/>
		</g>
		<g>
			<circle class="st0" cx="730.7" cy="629.4" r="13.4"/>
		</g>
		<g>
			<circle class="st0" cx="730.7" cy="367" r="13.4"/>
		</g>
		<g>
			<path class="st0" d="M977.7,497c-32-54.8-83.2-96.9-144.4-117.2c0.1,0,0.1-0.1,0.1-0.1c2.8-4.3,5.6-8.7,8.2-13.2
				C796.1,288.5,711.5,236,614.7,236c-6,0-11.9,0.3-17.7,0.7c-30.1,14.2-57.4,33.4-80.7,56.6C470.9,255.7,412.6,233,349.1,233
				C204.3,233,86.3,350.8,86.3,495.6c0,58.7,19.3,113,52.2,156.7L79.9,711c-4.8,5.3-7.7,12.4-7.7,20.2c0,16.3,13.4,29.8,29.7,29.8
				c7.8,0,14.9-3.2,20.2-7.8l57.3-57.4c45.9,38.9,105.1,62.4,169.7,62.4c62.5,0,120-22,165.1-58.5c23,23.4,50,43,80,57.5
				c6.8,0.5,13.6,0.8,20.6,0.8c96.8,0,181.3-52.5,226.8-130.4c-2.6-4.6-5.4-9-8.2-13.3C894.5,594,945.7,551.8,977.7,497z
				 M607.3,276.4c2.5-0.1,5-0.1,7.5-0.1c70.6,0,137.2,34.1,178.8,90.4c-0.8,1.1-1.7,2.2-2.4,3.2c-8.8,11.7-18.8,22.2-29.8,31.8
				c-2,1.8-4,3.6-6.2,5.2c-0.1,0.1-0.3,0.3-0.4,0.3c-0.1-0.1-0.4-0.3-0.5-0.3c-21.7-13.8-45.7-24.4-71.2-31.3c-0.1,0-0.1,0-0.3,0
				c-21.7-5.8-44.6-8.9-68.1-8.9c-12.1,0-24,0.8-35.6,2.4c-9.5-17.1-20.8-33.1-33.8-47.7C563.4,303.3,584.3,288.1,607.3,276.4z
				 M596.5,407.5c5-0.4,10-0.7,15.1-0.7c1-0.1,2.1-0.1,3.2-0.1c19.6,0,38.9,2.6,57.6,7.6c3.5,1,7.1,2,10.6,3.2
				c11.7,3.8,23.1,8.6,34.1,14.4c13.4,6.8,26,15.2,37.7,24.7c2.2,1.7,4.4,3.6,6.5,5.4c12,10.5,22.8,22.2,32.3,35
				c-9.5,12.8-20.2,24.5-32.3,35.1c-2.1,1.9-4.3,3.8-6.5,5.3c-11.7,9.7-24.3,17.9-37.7,24.7c-11,5.8-22.4,10.6-34.1,14.4
				c-3.6,1.1-7.1,2.1-10.6,3.2c-18.7,5-38.1,7.6-57.6,7.6c-1.1,0-2.3,0-3.4-0.1c-5.3-0.1-10.6-0.3-15.8-0.8
				c10.5-28.3,16.2-58.9,16.2-90.8C611.7,464.7,606.3,435,596.5,407.5z M517.4,608.8c-3.5,5.3-7.3,10.3-11.3,15.2
				c-8.7,10.7-18.5,20.4-29.2,29.1c-34.9,28.4-79.4,45.5-127.8,45.5c-111.8,0-203-91.1-203-203c0-111.8,91.1-203,203-203
				c49.2,0,94.3,17.6,129.5,46.8c10.6,8.9,20.4,18.8,29,29.6c4,5,7.8,10.2,11.3,15.6c7.4,11.2,13.6,23.2,18.7,35.8
				c9.3,23.2,14.5,48.6,14.5,75.1c0,27.4-5.5,53.7-15.4,77.6C531.4,585.7,524.9,597.7,517.4,608.8z M614.7,717.8
				c-3.3,0-6.6,0-9.9-0.3c-23-12.1-43.7-27.4-61.5-45.3c13.1-14.4,24.6-30.3,34.2-47.3c12.1,1.8,24.5,2.6,37.1,2.6
				c23.5,0,46.4-3.2,68.1-9c25.5-6.8,49.5-17.4,71.4-31.3c0.1,0,0.4-0.1,0.5-0.3c0.1,0,0.2,0.1,0.4,0.3c2.1,1.6,4.2,3.4,6.2,5.2
				c11,9.6,21,20.3,29.8,32c0.8,1,1.7,2,2.4,3.2C752,683.7,685.4,717.8,614.7,717.8z M806.2,580.3c-5.7-6.3-11.9-12.4-18.3-18.1
				c21.2-18.6,39.4-40.7,53.7-65.2c-14.3-24.5-32.5-46.6-53.7-65.2c6.4-5.7,12.7-11.8,18.3-18.1c49.1,12.8,93,42.1,123.5,83.3
				C899.2,538.2,855.2,567.5,806.2,580.3z"/>
		</g>
	</g>
	<g>
		<path class="st0" d="M1190.7,575.8v42.6h-123.3h-35.7V373.1h52.9v202.7H1190.7z"/>
		<path class="st0" d="M1376.2,543.8h-115.2c1.9,11.3,6.6,20.4,14.2,27c7.5,6.7,17.2,10,29,10c8.8,0,16.9-1.7,24.3-5
			c7.5-3.3,13.8-8.3,19.1-14.9l24.4,28.1c-6.4,9.2-15.8,17-28,23.3c-12.3,6.3-26.7,9.4-43.2,9.4c-18.6,0-34.8-3.9-48.6-11.8
			c-13.8-7.9-24.3-18.5-31.7-32c-7.4-13.5-11-28.4-11-44.7V527c0-18.2,3.4-34.4,10.3-48.7c6.9-14.3,16.7-25.4,29.7-33.4
			c12.9-8,28.2-12,45.8-12c17.2,0,31.8,3.7,44,10.9c12.1,7.3,21.3,17.7,27.6,31.1c6.3,13.4,9.4,29.2,9.4,47.4V543.8z M1326.3,505.7
			c-0.2-9.9-2.9-17.7-8.2-23.4c-5.2-5.7-13-8.6-23.3-8.6c-9.7,0-17.2,3.2-22.7,9.6c-5.5,6.4-9,15.2-10.7,26.4h64.9V505.7z"/>
		<path class="st0" d="M1563.2,543.8H1448c1.9,11.3,6.6,20.4,14.2,27c7.5,6.7,17.2,10,29,10c8.8,0,16.9-1.7,24.3-5
			c7.5-3.3,13.8-8.3,19.1-14.9l24.4,28.1c-6.4,9.2-15.8,17-28,23.3c-12.3,6.3-26.7,9.4-43.2,9.4c-18.6,0-34.8-3.9-48.6-11.8
			c-13.8-7.9-24.3-18.5-31.7-32c-7.4-13.5-11-28.4-11-44.7V527c0-18.2,3.4-34.4,10.3-48.7c6.9-14.3,16.7-25.4,29.7-33.4
			c12.9-8,28.2-12,45.8-12c17.2,0,31.8,3.7,44,10.9c12.1,7.3,21.3,17.7,27.6,31.1c6.3,13.4,9.4,29.2,9.4,47.4V543.8z M1513.3,505.7
			c-0.2-9.9-2.9-17.7-8.2-23.4c-5.2-5.7-13-8.6-23.3-8.6c-9.7,0-17.2,3.2-22.7,9.6c-5.5,6.4-9,15.2-10.7,26.4h64.9V505.7z"/>
		<path class="st0" d="M1836.6,449.3c10.1,11,15.2,28.9,15.2,53.6v115.6h-50.9V502.7c0-7.6-1-13.6-3-17.8c-2-4.2-4.9-7.1-8.7-8.7
			c-3.8-1.6-8.5-2.4-14.2-2.4c-6.8,0-12.7,1.7-17.5,5c-4.8,3.3-8.6,8-11.5,14.1c0.1,0.8,0.2,2.1,0.2,3.9v121.6h-50.9V503.2
			c0-7.6-1-13.6-3-17.9s-4.9-7.3-8.7-8.9c-3.8-1.7-8.6-2.5-14.4-2.5c-6.5,0-12.2,1.4-16.9,4.3c-4.8,2.9-8.6,6.9-11.5,12.2v128h-50.9
			V436.2h47.7l1.7,20.4c6.1-7.6,13.5-13.5,22.3-17.6c8.8-4.1,18.8-6.2,29.9-6.2c11.2,0,20.9,2.3,29.1,6.8
			c8.1,4.5,14.4,11.5,18.8,20.8c6.1-8.9,13.7-15.7,22.8-20.5c9.2-4.8,19.7-7.2,31.6-7.2C1812.2,432.8,1826.5,438.3,1836.6,449.3z"/>
	</g>
	<g>
		<g>
			<path class="st0" d="M1686.7,652v62.8h-8.1V652H1686.7z"/>
			<path class="st0" d="M1700.8,714.9V652h8.9l20.1,31.8c4.7,7.4,8.3,14,11.3,20.4l0.2-0.1c-0.7-8.4-0.9-16-0.9-25.8V652h7.6v62.8
				h-8.2l-20-31.9c-4.4-7-8.6-14.2-11.7-21l-0.3,0.1c0.5,7.9,0.7,15.5,0.7,25.9v26.9H1700.8z"/>
			<path class="st0" d="M1762.2,652.8c3.9-0.7,9-1.2,15.6-1.2c8,0,13.9,1.9,17.6,5.2c3.5,3,5.5,7.6,5.5,13.1
				c0,5.7-1.7,10.2-4.8,13.4c-4.3,4.6-11.3,6.9-19.2,6.9c-2.4,0-4.7-0.1-6.5-0.6v25.2h-8.1V652.8z M1770.3,683.1
				c1.8,0.5,4,0.7,6.7,0.7c9.8,0,15.8-4.8,15.8-13.4c0-8.3-5.9-12.3-14.8-12.3c-3.5,0-6.2,0.3-7.6,0.7V683.1z"/>
			<path class="st0" d="M1814.1,695.1l-6.5,19.8h-8.4l21.4-62.8h9.8l21.4,62.8h-8.7l-6.7-19.8H1814.1z M1834.7,688.8l-6.2-18.1
				c-1.4-4.1-2.3-7.8-3.3-11.5h-0.2c-0.9,3.7-2,7.6-3.2,11.4l-6.2,18.2H1834.7z"/>
		</g>
	</g>
</g>
</svg>
