<svg xmlns="http://www.w3.org/2000/svg" height="512pt" version="1.1" viewBox="0 -31 512 512" width="512pt">
<g id="surface1">
<path d="M 467 90 L 312.710938 90 L 330.550781 18.636719 C 331.671875 14.15625 330.664062 9.410156 327.820312 5.769531 C 324.980469 2.128906 320.617188 0 316 0 L 196 0 C 191.382812 0 187.019531 2.128906 184.175781 5.769531 C 181.335938 9.410156 180.328125 14.15625 181.449219 18.636719 L 199.289062 90 L 45 90 C 20.1875 90 0 110.1875 0 135 L 0 405 C 0 429.8125 20.1875 450 45 450 L 467 450 C 491.8125 450 512 429.8125 512 405 L 512 135 C 512 110.1875 491.8125 90 467 90 Z M 296.789062 30 L 274.289062 120 L 237.710938 120 L 215.210938 30 Z M 482 405 C 482 413.269531 475.269531 420 467 420 L 45 420 C 36.730469 420 30 413.269531 30 405 L 30 135 C 30 126.730469 36.730469 120 45 120 L 206.789062 120 L 211.449219 138.636719 C 213.117188 145.316406 219.117188 150 226 150 L 286 150 C 292.882812 150 298.882812 145.316406 300.550781 138.636719 L 305.210938 120 L 467 120 C 475.269531 120 482 126.730469 482 135 Z M 482 405 " style=" stroke:none;fill-rule:nonzero;fill:rgb(0%,0%,0%);fill-opacity:1;" />
<path d="M 194.515625 251.242188 C 204.71875 240.480469 211 225.964844 211 210 C 211 176.914062 184.085938 150 151 150 C 117.914062 150 91 176.914062 91 210 C 91 225.964844 97.28125 240.480469 107.484375 251.242188 C 79.789062 266.605469 61 296.148438 61 330 L 61 375 C 61 383.285156 67.714844 390 76 390 L 226 390 C 234.285156 390 241 383.285156 241 375 L 241 330 C 241 296.148438 222.210938 266.605469 194.515625 251.242188 Z M 121 210 C 121 193.457031 134.457031 180 151 180 C 167.542969 180 181 193.457031 181 210 C 181 226.542969 167.542969 240 151 240 C 134.457031 240 121 226.542969 121 210 Z M 211 360 L 91 360 L 91 330 C 91 296.914062 117.914062 270 151 270 C 184.085938 270 211 296.914062 211 330 Z M 211 360 " style=" stroke:none;fill-rule:nonzero;fill:rgb(0%,0%,0%);fill-opacity:1;" />
<path d="M 286 210 L 377 210 C 385.285156 210 392 203.285156 392 195 C 392 186.714844 385.285156 180 377 180 L 286 180 C 277.714844 180 271 186.714844 271 195 C 271 203.285156 277.714844 210 286 210 Z M 286 210 " style=" stroke:none;fill-rule:nonzero;fill:rgb(0%,0%,0%);fill-opacity:1;" />
<path d="M 437 240 L 286 240 C 277.714844 240 271 246.714844 271 255 C 271 263.285156 277.714844 270 286 270 L 437 270 C 445.285156 270 452 263.285156 452 255 C 452 246.714844 445.285156 240 437 240 Z M 437 240 " style=" stroke:none;fill-rule:nonzero;fill:rgb(0%,0%,0%);fill-opacity:1;" />
<path d="M 437 300 L 286 300 C 277.714844 300 271 306.714844 271 315 C 271 323.285156 277.714844 330 286 330 L 437 330 C 445.285156 330 452 323.285156 452 315 C 452 306.714844 445.285156 300 437 300 Z M 437 300 " style=" stroke:none;fill-rule:nonzero;fill:rgb(0%,0%,0%);fill-opacity:1;" />
<path d="M 437 360 L 286 360 C 277.714844 360 271 366.714844 271 375 C 271 383.285156 277.714844 390 286 390 L 437 390 C 445.285156 390 452 383.285156 452 375 C 452 366.714844 445.285156 360 437 360 Z M 437 360 " style=" stroke:none;fill-rule:nonzero;fill:rgb(0%,0%,0%);fill-opacity:1;" />
</g>
</svg>