<?xml version="1.0" encoding="iso-8859-1"?>
<!-- Generator: Adobe Illustrator 21.0.0, SVG Export Plug-In . SVG Version: 6.00 Build 0)  -->
<svg xmlns="http://www.w3.org/2000/svg" xmlns:xlink="http://www.w3.org/1999/xlink" version="1.1" id="Capa_1" x="0px" y="0px" viewBox="0 0 512.01 512.01" style="enable-background:new 0 0 512.01 512.01;" xml:space="preserve" width="512" height="512">
<g>
	<path d="M361.993,135c0-24.813-20.187-45-45-45s-45,20.187-45,45s20.187,45,45,45S361.993,159.813,361.993,135z M316.993,150   c-8.271,0-15-6.729-15-15s6.729-15,15-15s15,6.729,15,15S325.264,150,316.993,150z"/>
	<path d="M316.993,180c-41.355,0-75,33.645-75,75v30c0,8.284,6.716,15,15,15h120c8.284,0,15-6.716,15-15v-30   C391.993,213.645,358.348,180,316.993,180z M361.993,270h-90v-15c0-24.813,20.187-45,45-45s45,20.187,45,45V270z"/>
	<path d="M316.993,0c-107.523,0-195,87.477-195,195c0,37.494,10.647,72.544,29.062,102.304L13.176,435.183   c-17.544,17.544-17.544,46.091,0,63.635c17.589,17.59,46.044,17.592,63.635,0l137.879-137.879   C244.449,379.353,279.499,390,316.993,390c107.523,0,195-87.477,195-195S424.517,0,316.993,0z M55.598,477.604   c-5.866,5.865-15.342,5.866-21.209,0c-5.847-5.847-5.847-15.362,0-21.209l81.394-81.394l21.209,21.209L55.598,477.604z    M158.204,374.998l-21.209-21.209l31.984-31.983c6.519,7.598,13.611,14.69,21.209,21.209L158.204,374.998z M316.993,360   c-90.981,0-165-74.019-165-165s74.019-165,165-165s165,74.019,165,165S407.975,360,316.993,360z"/>
</g>















</svg>
